<svg width="39" height="39" viewBox="0 0 39 39" fill="none" xmlns="http://www.w3.org/2000/svg">
<g clip-path="url(#clip0_374_463)">
<path d="M19.0325 38.0651C29.5439 38.0651 38.0651 29.5439 38.0651 19.0325C38.0651 8.52116 29.5439 0 19.0325 0C8.52116 0 0 8.52116 0 19.0325C0 29.5439 8.52116 38.0651 19.0325 38.0651Z" fill="#6239F2"/>
<path d="M19.0391 25.5766C19.0391 21.4662 21.4157 19.0391 25.4252 19.0391C28.8358 19.0391 31.0423 21.0312 31.3639 24.3914H27.9407C27.7326 22.7901 26.787 21.8255 25.419 21.8255C23.7483 21.8255 22.7522 23.2188 22.7522 25.6081L19.0391 25.5766Z" fill="white"/>
<path d="M15.3133 25.5764C15.3133 23.2186 14.3172 21.7938 12.6466 21.7938C11.2848 21.7938 10.3392 22.7584 10.1249 24.3596H6.70166C7.02948 20.9995 9.22335 19.0073 12.6403 19.0073C16.6498 19.0073 19.0265 21.4345 19.0265 25.5448L15.3133 25.5764Z" fill="white"/>
<path d="M19.0328 12.4951C19.0328 16.6118 16.6561 19.0389 12.6466 19.0389C9.236 19.0389 7.03583 17.0405 6.70801 13.6803H10.1312C10.3393 15.2816 11.2849 16.2462 12.6529 16.2462C14.3235 16.2462 15.3196 14.8529 15.3196 12.4951H19.0328Z" fill="white"/>
<path d="M22.7586 12.4951C22.7586 14.8529 23.7547 16.2462 25.4253 16.2462C26.787 16.2462 27.7327 15.2816 27.947 13.6803H31.3703C31.0487 17.0405 28.8485 19.0389 25.4316 19.0389C21.4221 19.0389 19.0454 16.6118 19.0454 12.4951H22.7586Z" fill="white"/>
<path d="M19.0894 20.268H18.1501C18.0872 20.2682 18.025 20.2553 17.9673 20.2302C17.9129 20.2062 17.8636 20.172 17.8223 20.1293C17.7782 20.0892 17.7437 20.0396 17.7214 19.9843C17.6963 19.9267 17.6834 19.8644 17.6836 19.8015V18.2444C17.6839 18.1815 17.6968 18.1193 17.7214 18.0615C17.7437 18.0062 17.7782 17.9567 17.8223 17.9165C17.8636 17.8739 17.9129 17.8396 17.9673 17.8157C18.025 17.7905 18.0872 17.7776 18.1501 17.7778H19.6442C19.741 17.7781 19.837 17.7952 19.9279 17.8283C20.0172 17.8649 20.0985 17.9184 20.1675 17.9859C20.2392 18.0501 20.2953 18.1299 20.3314 18.2191C20.3688 18.3068 20.3881 18.4012 20.3881 18.4965C20.3888 18.594 20.3695 18.6905 20.3314 18.7802C20.2907 18.8669 20.2352 18.9458 20.1675 19.0135C20.0981 19.0789 20.0168 19.1303 19.9279 19.1648C19.8382 19.2029 19.7417 19.2222 19.6442 19.2215H19.2849V20.0726C19.285 20.0983 19.2801 20.1238 19.2703 20.1476C19.2606 20.1714 19.2463 20.193 19.2281 20.2113C19.2103 20.23 19.1888 20.2447 19.1649 20.2545C19.141 20.2643 19.1152 20.2689 19.0894 20.268ZM18.1501 18.1372C18.1218 18.1379 18.0949 18.1491 18.0745 18.1687C18.0653 18.1931 18.0653 18.22 18.0745 18.2444V19.8015C18.0653 19.8259 18.0653 19.8528 18.0745 19.8772C18.0989 19.8858 18.1256 19.8858 18.1501 19.8772H18.9255V18.1057L18.1501 18.1372ZM19.2849 18.1687V18.7991H19.6442C19.69 18.8086 19.7372 18.8086 19.7829 18.7991C19.8249 18.7837 19.8635 18.7601 19.8964 18.7298C19.9271 18.6983 19.9527 18.6621 19.972 18.6226C19.9814 18.5832 19.9814 18.5422 19.972 18.5028C19.9815 18.4613 19.9815 18.4182 19.972 18.3767C19.9543 18.3363 19.9286 18.2998 19.8964 18.2696C19.8637 18.2373 19.8252 18.2117 19.7829 18.1939C19.7369 18.1874 19.6902 18.1874 19.6442 18.1939L19.2849 18.1687Z" fill="white"/>
</g>
<defs>
<clipPath id="clip0_374_463">
<rect width="38.0714" height="38.0714" fill="white"/>
</clipPath>
</defs>
</svg>
