<svg width="64" height="86" viewBox="0 0 64 86" fill="none" xmlns="http://www.w3.org/2000/svg">
<g clip-path="url(#clip0_387_3753)">
<path d="M39.1416 21.4285C41.395 23.7727 41.272 26.5836 41.0822 29.5164H38.3542C38.3753 26.7299 38.7057 23.7448 35.5067 22.0694C32.5572 23.6229 32.4974 26.4442 32.7541 29.4746H29.9979C29.7554 26.6532 29.5866 23.8458 31.9314 21.432C30.1737 21.0349 28.9292 21.2439 27.7129 22.5118C24.6193 25.765 21.3394 28.8372 18.1825 32.0312C10.6102 39.6941 8.43418 48.6539 11.6543 58.9106C11.7246 59.13 11.7985 59.346 11.9004 59.6595C11.468 59.8684 11.0743 60.0809 10.6595 60.2516C10.2446 60.4222 9.90716 60.5163 9.37281 60.6974C7.65503 56.5359 7.0274 52.0115 7.54829 47.5451C8.3006 40.6485 11.2712 34.8142 16.2807 29.9657C19.7082 26.6497 23.069 23.2641 26.0571 20.307C24.9463 17.2488 23.6947 14.6225 23.0549 11.8569C22.1655 8.00799 23.5893 5.88676 27.4317 4.87317C28.2754 4.65025 29.446 5.01597 30.2686 5.46878C32.1775 6.51372 32.5642 6.51373 33.9036 4.79654C34.118 4.52137 34.3184 4.23575 34.5364 3.96406C37.2433 0.634183 41.5919 1.04172 43.5746 4.86272C44.3023 6.25597 44.7488 7.59698 46.9037 7.3671C49.3646 7.10586 49.8216 7.79551 49.5192 10.3312C49.115 13.6855 48.0884 15.7301 44.5695 20.0178C46.1303 21.5156 47.751 23.0064 49.2942 24.5738C52.1558 27.4787 55.2705 30.206 57.763 33.3931C69.0687 47.775 63.5388 68.8096 46.7069 76.065C46.0038 76.3611 45.3007 76.6084 44.4464 76.9358L43.5289 74.4036C44.0386 74.1772 44.45 73.9821 44.8718 73.8079C48.7514 72.2716 52.189 69.8116 54.8807 66.6455C57.5723 63.4795 59.435 59.705 60.3039 55.6559C61.1728 51.6068 61.0212 47.4079 59.8624 43.4307C58.7037 39.4535 56.5735 35.8206 53.6604 32.8532C50.0981 29.1611 46.4444 25.5618 42.6993 22.0555C41.954 21.3589 40.59 21.3205 39.5037 20.9792L39.1416 21.4285ZM46.6471 9.8854C43.2828 11.108 42.3161 8.9136 41.3739 6.68788C41.258 6.42266 41.1241 6.16548 40.9732 5.91811C39.9185 4.17654 38.1608 4.05115 36.8144 5.62553C36.4629 6.0226 36.1816 6.45799 35.8582 6.869C33.988 9.24798 31.9244 9.63462 29.2738 8.10552C27.4563 7.06058 25.674 8.02889 25.7056 10.1292C25.7193 12.9395 26.7368 15.6542 28.5777 17.7921C29.0246 18.2064 29.6145 18.4357 30.2265 18.433C33.7911 18.4888 37.3558 18.4818 40.924 18.433C41.4866 18.438 42.0347 18.2565 42.4813 17.9175C44.7382 15.8659 46.2745 13.4034 46.6471 9.8854Z" fill="white"/>
<path d="M7.99989 85.2557V82.5877H8.69475V67.3106H0.0455933V64.4266C3.13567 64.4266 -1.75669 64.1827 1.30175 64.4788C7.19716 65.057 12.502 63.824 17.2935 60.3478C18.2663 59.7025 19.2903 59.1364 20.3555 58.655C22.3487 57.6484 24.5529 57.9584 26.0435 59.3899C27.534 60.8215 27.8997 62.9567 26.9575 65.0048C26.606 65.7397 26.2263 66.4538 25.8642 67.1817C25.5126 67.8505 25.2103 68.5262 24.792 69.3866C25.3791 69.7349 25.9029 70.0379 26.4443 70.327C30.8737 72.6921 35.3102 75.0397 39.7362 77.4117C42.0142 78.6343 42.9493 80.3724 42.4255 82.3055C41.8806 84.3188 40.3162 85.3324 37.7007 85.3324C23.0038 85.3324 24.3045 85.3324 9.60293 85.3324C9.08968 85.3289 8.57642 85.2871 7.99989 85.2557ZM11.6196 82.5389H38.0698C38.2456 82.5389 38.4741 82.5946 38.5866 82.5075C38.9768 82.208 39.4971 81.9119 39.6412 81.5044C39.7432 81.1979 39.4268 80.6336 39.135 80.3445C38.7254 80.0175 38.2724 79.7479 37.7886 79.5434C32.8424 76.9067 27.9137 74.2421 22.9429 71.6541C21.4839 70.8982 21.15 70.0344 21.9831 68.5959C22.8648 67.1575 23.6109 65.6418 24.212 64.0678C24.4862 63.2841 24.451 61.9257 23.9553 61.4729C23.4596 61.0201 22.0429 61.0166 21.3117 61.3788C18.3306 62.8487 15.4479 64.5136 12.5547 66.1612C12.1645 66.3806 11.6723 66.8578 11.6688 67.2479C11.602 72.288 11.6196 77.3211 11.6196 82.5389Z" fill="white"/>
<path d="M29.4602 67.426C29.7801 66.597 30.0684 65.8551 30.3426 65.141C40.0945 66.4716 46.1621 63.8975 49.442 57.1298C50.8551 54.1988 51.2918 50.8987 50.689 47.7059C50.0862 44.513 48.4751 41.5925 46.0883 39.3658C43.7091 37.1357 40.6737 35.716 37.4239 35.3132C34.174 34.9103 30.8792 35.5455 28.0189 37.1261C21.5786 40.6755 19.0439 47.0496 20.8052 55.6042L18.5096 56.461C15.3 50.78 17.9858 41.1979 24.0499 36.4051C27.4312 33.6979 31.6767 32.2754 36.0223 32.3935C40.3679 32.5117 44.5282 34.1627 47.7546 37.0495C50.9842 39.9314 53.0703 43.8601 53.638 48.1295C54.2057 52.3989 53.2177 56.729 50.8517 60.3413C46.257 67.3633 36.7267 70.5921 29.4602 67.426Z" fill="white"/>
<path d="M33.9919 44.8559C33.3943 43.8702 32.9794 43.1875 32.5857 42.5257C35.0289 40.3801 35.2645 40.3522 37.8062 41.8639C39.4619 42.8461 41.181 43.7483 42.7278 44.8698C43.3756 45.3801 43.7959 46.1216 43.8984 46.9353C44.0443 49.311 44.0443 51.6932 43.8984 54.0688C43.8518 54.4729 43.7242 54.8637 43.5232 55.2184C43.3222 55.5731 43.0517 55.8844 42.7278 56.1343C40.8073 57.4535 38.8029 58.6484 36.7269 59.7115C36.3538 59.8727 35.951 59.9559 35.544 59.9559C35.1369 59.9559 34.7342 59.8727 34.361 59.7115C32.2767 58.656 30.2681 57.4596 28.3496 56.1308C27.6716 55.5749 27.239 54.7789 27.1438 53.9121C26.9751 51.9545 27.2211 49.9587 27.0489 47.9907C26.8836 46.0889 27.5586 44.8872 29.3058 44.1871C29.7315 43.981 30.1437 43.7483 30.5397 43.4905L31.8861 45.6222C31.1514 46.3641 30.0616 46.9493 29.9913 47.6354C29.7874 49.6905 29.3128 52.1635 30.2093 53.7623C31.067 55.3053 33.4224 56.5767 35.2821 56.8449C36.6672 57.0469 38.337 55.4934 39.8522 54.6435C40.3584 54.3544 41.065 53.8354 41.0896 53.3931C41.1915 51.3032 41.4411 49.1332 40.9068 47.1826C40.6502 46.2387 38.7975 45.6814 37.6409 45.0266C36.5195 44.4101 35.4649 43.0551 33.9919 44.8559Z" fill="white"/>
</g>
<defs>
<clipPath id="clip0_387_3753">
<rect width="64" height="85.3333" fill="white"/>
</clipPath>
</defs>
</svg>
